<?xml version="1.0" standalone="no"?>
<!DOCTYPE svg PUBLIC "-//W3C//DTD SVG 20010904//EN"
 "http://www.w3.org/TR/2001/REC-SVG-20010904/DTD/svg10.dtd">
<svg version="1.0" xmlns="http://www.w3.org/2000/svg"
 width="512.000000pt" height="512.000000pt" viewBox="0 0 512.000000 512.000000"
 preserveAspectRatio="xMidYMid meet">
<metadata>
Created by potrace 1.14, written by Peter Selinger 2001-2017
</metadata>
<g transform="translate(0.000000,512.000000) scale(0.100000,-0.100000)"
fill="#000000" stroke="none">
<path d="M2059 4775 c-1 -3 -2 -15 -3 -27 0 -11 -9 -22 -18 -24 -9 -1 -35 -5
-57 -8 -99 -14 -224 -102 -274 -193 -46 -85 -54 -140 -55 -358 0 -110 -1 -216
-1 -235 l-1 -36 -562 1 c-310 1 -587 -3 -618 -7 -156 -25 -286 -136 -340 -292
-19 -57 -20 -81 -20 -1475 0 -1152 3 -1425 14 -1466 37 -141 138 -250 276
-301 41 -15 225 -16 2140 -14 1458 1 2109 4 2140 12 109 26 221 111 273 207
60 109 57 38 57 1561 0 904 -4 1410 -11 1439 -37 162 -170 292 -332 325 -42 9
-219 12 -631 11 l-571 0 2 225 c1 124 -3 247 -8 274 -22 119 -103 229 -204
281 -68 34 -156 56 -177 44 -13 -7 -15 -3 -12 26 l3 35 -505 0 c-277 0 -505
-2 -505 -5z m-3 -353 c1 -6 2 -16 3 -20 0 -4 227 -8 503 -7 479 0 501 1 504
18 1 11 5 21 8 24 11 11 67 -20 87 -49 20 -27 21 -44 22 -261 l2 -232 -625 0
-625 -1 1 231 c1 204 3 234 19 259 30 45 98 71 101 38z"/>
</g>
</svg>
